# xmcd CD database file
#
# Track frame offsets:
#	150
#	37439
#	102518
#	138162
#	182618
#
# Disc length: 2933 seconds
#
# Revision: 0
# Processed by: cddbd v1.5.1PL0 Copyright (c) Steve Scherf et al.
# Submitted via: CDex 1.51
#
DISCID=440b7305
DTITLE=Milan - Der Traum aus dem unordentlichen Zimmer 1 von 2
DYEAR=1998
DGENRE=Hörbuch
TTITLE0=Der Waldkönig
TTITLE1=Zwerg Tjan
TTITLE2=Auf in´s Geschichtenland
TTITLE3=Milan der Bär
TTITLE4=Milan der Falke
EXTD=YEAR: 1998
EXTT0=
EXTT1=
EXTT2=
EXTT3=
EXTT4=
PLAYORDER=
